<?xml version="1.0" encoding="utf-8"?>
<!-- Generator: Adobe Illustrator 23.0.0, SVG Export Plug-In . SVG Version: 6.00 Build 0)  -->
<svg version="1.1" id="Calque_1" xmlns="http://www.w3.org/2000/svg" xmlns:xlink="http://www.w3.org/1999/xlink" x="0px" y="0px"
	 viewBox="0 0 512 512" style="enable-background:new 0 0 512 512;" xml:space="preserve">
<g>
	<path d="M256,110.9c47.3,0,52.9,0.2,71.5,1c17.3,0.8,26.6,3.7,32.9,6.1c7.7,2.8,14.6,7.4,20.4,13.2c5.9,5.7,10.4,12.7,13.2,20.4
		c2.4,6.2,5.3,15.6,6.1,32.9c0.9,18.7,1,24.3,1,71.5s-0.2,52.9-1,71.5c-0.8,17.3-3.7,26.6-6.1,32.9c-6,15.4-18.2,27.6-33.6,33.6
		c-6.2,2.4-15.6,5.3-32.9,6.1c-18.7,0.9-24.3,1-71.5,1s-52.9-0.2-71.5-1c-17.3-0.8-26.6-3.7-32.9-6.1c-7.7-2.8-14.6-7.4-20.4-13.2
		c-5.9-5.7-10.4-12.7-13.2-20.4c-2.4-6.2-5.3-15.6-6.1-32.9c-0.9-18.7-1-24.3-1-71.5s0.2-52.9,1-71.5c0.8-17.3,3.7-26.6,6.1-32.9
		c2.8-7.7,7.4-14.6,13.2-20.4c5.7-5.9,12.7-10.4,20.4-13.2c6.2-2.4,15.6-5.3,32.9-6.1C203.1,111.1,208.7,110.9,256,110.9 M256,79
		c-48.1,0-54.1,0.2-73,1.1c-18.8,0.9-31.7,3.9-43,8.2c-11.8,4.4-22.5,11.4-31.3,20.4c-9,8.8-16,19.5-20.4,31.3
		c-4.4,11.3-7.4,24.1-8.2,43c-0.9,18.9-1.1,24.9-1.1,73s0.2,54.1,1.1,73c0.9,18.8,3.9,31.7,8.2,43c4.4,11.8,11.4,22.5,20.4,31.3
		c8.8,9,19.5,16,31.3,20.4c11.3,4.4,24.1,7.4,43,8.2c18.9,0.9,24.9,1.1,73,1.1s54.1-0.2,73-1.1c18.8-0.9,31.7-3.9,43-8.2
		c23.8-9.2,42.6-28,51.8-51.8c4.4-11.3,7.4-24.1,8.2-43c0.9-18.9,1.1-24.9,1.1-73s-0.2-54.1-1.1-73c-0.9-18.8-3.9-31.7-8.2-43
		c-4.4-11.8-11.4-22.5-20.4-31.3c-8.8-9-19.5-16-31.4-20.4c-11.3-4.4-24.1-7.4-43-8.2C310.1,79.2,304.1,79,256,79L256,79L256,79z"/>
	<path d="M256,165.1c-50.2,0-90.9,40.7-90.9,90.9s40.7,90.9,90.9,90.9s90.9-40.7,90.9-90.9l0,0C346.9,205.8,306.2,165.1,256,165.1z
		 M256,315c-32.6,0-59-26.4-59-59c0-32.6,26.4-59,59-59c32.6,0,59,26.4,59,59C315,288.6,288.6,315,256,315z"/>
	<circle cx="350.5" cy="161.5" r="21.2"/>
</g>
</svg>
